<?xml version="1.0" encoding="UTF-8" standalone="no"?>
<!DOCTYPE svg PUBLIC "-//W3C//DTD SVG 1.1//EN" "http://www.w3.org/Graphics/SVG/1.1/DTD/svg11.dtd">
<svg width="100%" height="100%" viewBox="0 0 576 576" version="1.1" xmlns="http://www.w3.org/2000/svg" xmlns:xlink="http://www.w3.org/1999/xlink" xml:space="preserve" xmlns:serif="http://www.serif.com/" style="fill-rule:evenodd;clip-rule:evenodd;stroke-linejoin:round;stroke-miterlimit:2;">
    <g id="SVG-Color" serif:id="SVG Color">
        <g transform="matrix(2.35289,0,0,2.35289,-711.205,-106.599)">
            <circle cx="424.672" cy="167.709" r="122.403" style="fill:url(#_Radial1);"/>
        </g>
        <path d="M60.847,190.279C69.077,190.436 76.453,197.54 76.508,206.118L76.508,206.169C76.499,207.608 76.413,208.155 76.224,209.142C74.355,218.899 61.859,225.295 52.578,219.808C45.61,215.688 42.804,205.74 46.695,198.579C49.434,193.537 55.017,190.243 60.847,190.279Z" style="fill:rgb(253,183,23);fill-rule:nonzero;"/>
        <path d="M15.934,193.366C19.905,196.264 22.626,200.921 22.659,206.118L22.659,206.169C22.65,207.609 22.565,208.155 22.375,209.142C21.072,215.942 14.609,221.109 7.668,221.76C9.945,212.102 12.708,202.632 15.934,193.366Z" style="fill:rgb(253,183,23);"/>
        <path d="M59.478,351.845C67.708,352.003 75.084,359.106 75.139,367.684L75.139,367.735C75.133,368.613 75.114,368.697 75.076,369.126C74.244,378.493 63.607,385.801 54.371,382.801C44.759,379.679 40.077,366.045 47.033,357.616C50.036,353.977 54.731,351.815 59.478,351.845Z" style="fill:rgb(253,183,23);fill-rule:nonzero;"/>
        <path d="M7.587,353.898C7.634,353.897 7.681,353.898 7.727,353.898C14.891,354.033 21.315,360.238 21.362,367.684L21.362,367.735C21.354,369.097 21.258,369.686 21.046,370.657C20.268,374.232 17.868,377.269 14.764,379.202C11.999,370.926 9.6,362.484 7.587,353.898Z" style="fill:rgb(253,183,23);"/>
        <path d="M22.008,398.535C25.017,395.265 29.446,393.345 33.923,393.373C42.144,393.53 49.529,400.633 49.584,409.212L49.584,409.262C49.578,410.137 49.559,410.224 49.521,410.654C48.861,418.084 42.03,424.22 34.624,424.941C29.99,416.392 25.776,407.583 22.008,398.535Z" style="fill:rgb(253,183,23);"/>
        <path d="M3.981,240.053L37.643,240.053L46.123,240.053C46.212,240.056 46.3,240.059 46.389,240.062C47.637,240.187 48.759,240.841 49.481,241.879L74.235,280.117L135.446,280.117L135.969,280.151C137.564,280.469 138.907,281.579 139.31,283.082C139.431,283.533 139.416,283.654 139.446,284.117L139.446,291.392C139.186,295.365 137.359,295.267 135.446,295.392L98.943,295.392L75.149,335.511C74.395,336.694 73.123,337.424 71.709,337.47L64.434,337.47L64.403,337.469L47.416,337.469C43.711,343.508 35.856,347.211 28.815,344.925C19.203,341.802 14.522,328.168 21.478,319.739C24.481,316.1 29.175,313.939 33.923,313.968C39.509,314.076 44.71,317.389 47.486,322.194L66.471,322.194L82.367,295.392L0.093,295.392C0.031,292.92 0,290.464 0,288C0,285.361 0.036,282.731 0.106,280.117L56.223,280.117L40.177,255.328L1.837,255.328C2.418,250.187 3.135,245.088 3.981,240.053Z" style="fill:rgb(253,183,23);"/>
        <g transform="matrix(2.83519,0,0,2.83519,345.498,222.947)">
            <path d="M2.461,19.171C4.406,19.173 4.872,19.461 5.653,19.766C8.259,20.784 10.359,22.955 11.431,25.564C13.579,30.796 12.823,37.233 9.398,41.595C7.198,44.397 3.959,46.403 0.484,47.016C0.484,47.016 0.277,47.049 0.061,47.055C-8.765,47.144 -17.592,47.056 -26.419,47.056C-28.616,47.028 -30.217,44.006 -28.564,42.188C-28.038,41.609 -27.278,41.265 -26.485,41.235C-17.758,41.124 -9.029,41.234 -0.301,41.234C4.463,40.119 7.562,34.944 6.497,29.319C6.464,29.146 6.427,28.975 6.385,28.804C5.961,27.091 4.85,25.286 2.957,24.993L2.946,24.992C-2.431,24.992 -7.807,24.991 -13.184,24.992L-13.918,24.992C-16.521,24.883 -19.261,23.252 -20.945,21.079C-22.685,18.832 -23.49,15.912 -23.355,13.088C-23.355,13.088 -23.346,11.984 -23.236,11.106C-22.959,8.881 -22.141,6.724 -20.846,4.891C-18.582,1.689 -15.049,-0.741 -11.216,-1.372C-11.074,-1.396 -10.931,-1.408 -10.787,-1.411C-2.844,-1.467 5.099,-1.411 13.042,-1.411C15.244,-1.383 16.841,1.639 15.187,3.458C14.661,4.037 13.901,4.38 13.107,4.41C5.277,4.509 -2.554,4.411 -10.385,4.411C-14.129,5.445 -17.438,8.633 -17.529,12.793C-17.588,15.469 -16.658,18.364 -13.728,19.103C-13.659,19.12 -13.589,19.136 -13.519,19.152C-12.699,19.329 -11.802,19.172 -10.939,19.172C-6.468,19.171 -2.002,19.17 2.461,19.171Z" style="fill:white;"/>
        </g>
        <path d="M486.611,352.808L486.611,356.808C463.541,356.808 440.469,356.968 417.399,356.807C402.789,356.498 387.235,344.981 386.276,329.683C385.872,323.241 386.848,316.754 387.729,310.268C390.377,290.768 394.314,271.379 398.547,252.194C398.708,251.502 398.235,252.588 399.297,250.033C405.26,235.686 416.492,222.184 433.033,220.799C433.819,220.733 434.606,220.7 435.394,220.689C452.11,220.611 468.828,220.538 485.544,220.689C489.388,220.791 493.112,222.914 496.644,224.977C505.277,230.018 511.975,238.748 511.831,249.85C511.655,263.413 509.552,276.95 507.268,290.185C507.268,290.185 505.05,296.888 499.233,297.002L406.376,297.779C404.692,307.543 402.793,317.349 402.723,327.241C402.672,334.501 410.524,339.145 417.969,340.291C417.969,340.291 486.637,340.302 486.637,340.302C486.835,340.305 486.835,340.305 487.033,340.312C492.835,340.68 497.036,348.137 493.339,353.335C491.827,355.461 489.286,356.774 486.662,356.807L486.611,352.808ZM484.022,237.194L435.704,237.194C427.203,237.236 420.59,245.048 416.86,251.67C416.01,253.18 415.234,254.734 414.558,256.33L414.519,256.424C412.759,264.469 411.117,272.526 409.544,280.596L409.417,281.249L492.105,280.556C493.701,270.075 495.293,259.659 495.333,248.986C495.353,243.515 490,239.497 484.082,237.216L484.022,237.194ZM410.685,255.232L410.685,255.232L410.685,255.232L410.685,255.232Z" style="fill:white;fill-rule:nonzero;"/>
        <path d="M196.129,220.076C198.101,220.152 198.385,220.128 199.347,220.134C214.21,220.204 229.067,220.124 243.927,220.072C244.319,220.07 254.102,222.562 259.596,226.38C267.111,231.602 272.951,240.145 271.513,250.285C271.493,250.526 271.472,250.697 271.472,250.697C267.896,274.993 263.69,299.194 259.563,323.403C258.981,326.558 257.476,329.557 255.959,332.475C250.525,342.923 241.454,351.686 229.996,355.291C229.165,355.553 228.314,355.755 227.443,355.798C212.842,356.248 198.216,356.136 183.636,357.051C183.636,357.051 179.478,356.638 176.076,355.518C170.105,353.551 164.606,350.24 159.928,346.033L159.918,346.024C156.29,365.964 152.673,385.906 149.065,405.85C149.065,405.85 148.298,408.917 146.343,410.604C144.874,411.872 142.951,412.59 140.998,412.611L140.77,412.61C136.056,412.452 132.104,407.967 132.792,403.1C140.95,354.344 149.984,306.335 159.466,257.097C159.905,254.849 160.514,252.209 160.514,252.209L160.665,251.697C166.149,236.829 179.215,223.228 193.777,220.32C194.549,220.166 195.333,220.059 196.129,220.076ZM196.715,236.569C189.015,238.504 182.582,245.853 178.337,252.925C175.748,257.237 175.262,262.337 174.347,267.238C171.084,284.717 167.912,302.156 164.728,319.606L163.806,324.658C168.076,332.241 175.013,338.909 183.799,340.521C183.799,340.521 225.684,339.338 225.684,339.338C234.268,336.357 240.519,328.371 243.383,320.058L243.391,320.034C247.301,296.165 251.907,272.4 255.118,248.427C255.731,243.351 249.179,237.923 243.541,236.659C242.339,236.389 240.848,236.588 239.469,236.592C225.285,236.638 211.139,237.144 196.91,236.57C196.91,236.57 196.774,236.555 196.715,236.569ZM159.618,325.331C159.618,325.331 159.618,325.331 159.618,325.331Z" style="fill:white;fill-rule:nonzero;"/>
        <path d="M35.169,150.06C42.907,150.838 49.588,157.665 49.64,165.827L49.64,165.878C49.634,166.756 49.615,166.84 49.577,167.27C48.745,176.636 38.108,183.944 28.872,180.945C26.344,180.124 24.122,178.595 22.357,176.632C26.182,167.526 30.463,158.657 35.169,150.06Z" style="fill:rgb(253,183,23);"/>
    </g>
    <defs>
        <radialGradient id="_Radial1" cx="0" cy="0" r="1" gradientUnits="userSpaceOnUse" gradientTransform="matrix(115.951,133.59,-133.59,115.951,405.76,138.361)"><stop offset="0" style="stop-color:rgb(21,89,169);stop-opacity:1"/><stop offset="1" style="stop-color:rgb(20,89,169);stop-opacity:1"/></radialGradient>
    </defs>
</svg>
